PathFileType	4	(X/Y/Z)	G:\Shared drives\HPL_Drive\Nord Sprinting Study\Kristen_Nord_test\Trimmed_Nord000003.trc
DataRate	CameraRate	NumFrames	NumMarkers	Units	OrigDataRate	OrigDataStartFrame	OrigNumFrames
200.00	200.00	      5	52	mm	200.00	797	      1592
Frame#	Time	C7			R_Shoulder			L_Shoulder			Sternum			R_humerus			R_elbow_med			R_elbow_lat			R_forearm			R_wrist_radius			R_wrist_ulna			L_humerus			L_elbow_med			L_elbow_lat			L_forearm			L_wrist_radius			L_wrist_ulna			r.ASIS			r.PSIS			r_IC			L.ASIS			L.PSIS			l_IC			r_thigh1			r_thigh2			r_thigh3			r_thigh4			r_thigh5			r_knee			r_mknee			r_shank_antsup			r_sh2			r_sh3			r_sh4			r_ankle			r_mankle			r_calc			r_5meta			r_toe			L_thigh1			L_thigh2			L_thigh3			L_thigh4			L_knee			L_mknee			L_shank_antsup			L_sh2			L_sh3			L_ankle			L_mankle			L_calc			L_5meta			L_toe			
		X1	Y1	Z1	X2	Y2	Z2	X3	Y3	Z3	X4	Y4	Z4	X5	Y5	Z5	X6	Y6	Z6	X7	Y7	Z7	X8	Y8	Z8	X9	Y9	Z9	X10	Y10	Z10	X11	Y11	Z11	X12	Y12	Z12	X13	Y13	Z13	X14	Y14	Z14	X15	Y15	Z15	X16	Y16	Z16	X17	Y17	Z17	X18	Y18	Z18	X19	Y19	Z19	X20	Y20	Z20	X21	Y21	Z21	X22	Y22	Z22	X23	Y23	Z23	X24	Y24	Z24	X25	Y25	Z25	X26	Y26	Z26	X27	Y27	Z27	X28	Y28	Z28	X29	Y29	Z29	X30	Y30	Z30	X31	Y31	Z31	X32	Y32	Z32	X33	Y33	Z33	X34	Y34	Z34	X35	Y35	Z35	X36	Y36	Z36	X37	Y37	Z37	X38	Y38	Z38	X39	Y39	Z39	X40	Y40	Z40	X41	Y41	Z41	X42	Y42	Z42	X43	Y43	Z43	X44	Y44	Z44	X45	Y45	Z45	X46	Y46	Z46	X47	Y47	Z47	X48	Y48	Z48	X49	Y49	Z49	X50	Y50	Z50	X51	Y51	Z51	X52	Y52	Z52	

797	3.980	1205.53162	330.19885	1283.38354	1326.01233	368.09576	1285.26453	1080.67407	391.39413	1300.01221	1210.98767	467.15607	1238.50208	1489.90503	314.25323	1283.00610	1633.21143	314.04453	1215.99084	1614.92834	257.98117	1269.06299	1610.45044	337.65106	1373.10474	1579.83447	429.67279	1435.58569	1623.77441	417.66254	1452.34973	882.02905	365.38400	1285.95288	764.97754	401.95486	1209.93262	762.10944	339.80121	1256.58801	799.67352	421.76141	1376.56104	790.98499	493.15341	1443.02246	846.72858	484.18954	1433.86230	1328.42664	417.44254	767.55243	1275.53503	254.27327	864.32813	1366.89124	359.41617	863.62585	1088.58838	415.23209	765.80908	1159.86047	256.57620	858.82104	1060.82727	371.82419	851.06219	1387.71570	387.27765	530.96747	1386.32556	388.15118	415.70636	1402.46619	340.99304	386.86346	1399.44690	279.84592	532.88574	1379.52295	283.13367	415.03940	1384.32092	345.64923	308.77017	1256.80127	325.60736	318.45218	1404.83191	218.14540	292.59052	1387.51318	98.74473	287.01151	1403.22693	212.73592	368.53397	1386.83704	97.85838	369.66217	1375.19543	-67.38672	329.91714	1297.08777	-52.59861	294.18802	1317.15210	-94.90620	381.20978	1396.38696	-140.33215	227.95107	1361.76099	-118.10887	173.57259	1018.90027	385.04279	533.70923	1014.54626	382.47742	394.07846	1017.56427	266.40219	540.82196	1020.53094	267.65543	403.25827	1003.17773	315.37479	326.48215	1133.44531	315.61795	304.91864	984.20349	207.90283	306.24612	1002.99817	212.90279	395.01974	1015.87262	92.49425	389.26889	1018.14246	-80.94864	357.39859	1089.43628	-60.30260	307.13263	1071.17395	-80.56065	401.54803	1010.29529	-183.32675	258.07529	1047.28284	-165.29657	199.57155	
798	3.985	1205.61133	325.55661	1283.65576	1325.97571	363.45966	1285.87219	1080.57056	386.51550	1300.83984	1211.01709	462.77869	1239.46484	1489.93225	309.74286	1283.40747	1633.27258	309.87531	1216.40552	1615.02576	253.60909	1269.22778	1610.18884	332.82132	1373.60498	1579.13171	425.21362	1436.31165	1623.30933	412.28485	1453.10876	881.84778	360.97388	1286.62927	764.79260	398.12213	1210.97754	762.02557	335.83261	1256.90662	799.95416	417.01450	1377.29749	791.63367	488.02338	1444.09644	847.32623	479.06174	1434.83093	1328.77698	415.55197	768.33282	1275.68530	251.71178	864.07245	1367.05078	356.75671	864.05200	1088.54834	413.59586	766.70966	1159.92273	254.22723	858.55157	1060.98267	369.45090	851.48047	1387.75024	386.38672	531.28699	1386.43054	387.58667	416.04880	1402.50806	340.62115	387.06778	1399.93506	279.39542	532.92706	1379.69531	281.87485	414.84357	1384.32288	345.56012	308.84940	1256.84229	325.52228	318.48273	1405.09607	217.96773	292.24738	1387.79626	98.81376	285.66061	1403.35327	212.24359	367.97937	1387.39270	96.97594	368.83356	1375.54382	-67.60843	327.28290	1296.66833	-52.68289	291.67026	1317.47815	-95.71302	378.38251	1396.85535	-139.58162	224.74931	1362.35547	-116.99318	170.64595	1018.22699	384.46317	534.14630	1014.69843	382.27844	394.30853	1017.10681	265.05609	538.97119	1020.65027	267.27844	402.98914	1003.28113	315.21640	326.63983	1133.50256	315.55084	304.90509	984.11420	207.85924	305.94739	1003.21002	212.17767	394.59637	1016.05878	91.82711	388.12057	1017.93890	-81.44914	355.04999	1089.45386	-60.58973	305.22336	1070.92468	-81.42046	399.31967	1010.62476	-182.77231	254.99628	1046.94189	-164.30724	196.46603	
799	3.990	1205.51538	321.02017	1284.08398	1325.97339	358.77734	1286.46863	1080.49365	381.89655	1301.38733	1211.03833	458.30515	1240.40881	1490.02417	305.19534	1283.83374	1632.99792	306.23697	1216.50757	1615.13721	249.34993	1269.44910	1609.86755	328.04483	1374.13208	1578.90967	419.81137	1437.55847	1622.64380	407.25977	1454.01770	881.84009	356.76352	1287.07568	764.97626	394.42648	1211.20947	761.87512	331.81631	1257.27917	800.23529	412.29822	1377.90869	792.16168	483.25244	1445.15796	847.52979	473.86047	1435.81384	1329.02600	413.68152	769.18030	1275.76318	249.18655	863.71350	1367.25769	354.12628	864.45221	1088.98083	411.94159	767.41803	1160.07288	251.89809	858.11066	1061.06384	367.22098	851.93365	1387.83667	385.43274	531.58496	1386.46362	387.09332	416.40277	1402.56555	340.27054	387.22134	1399.39905	277.99789	532.74524	1379.73889	281.36438	414.73523	1384.24023	345.44839	308.97571	1256.87610	325.42511	318.48737	1405.26892	217.97533	291.74152	1388.04846	98.85059	284.18619	1403.53064	211.73969	367.34744	1387.53076	96.49366	367.36511	1375.89026	-67.92546	324.74539	1297.04663	-52.63636	289.19528	1317.72949	-95.83307	375.91531	1397.15283	-138.80064	221.81589	1362.97144	-115.95477	168.17754	1018.38403	383.66519	534.24146	1015.54810	382.14917	394.26056	1017.02637	264.31967	538.39679	1020.79407	267.05862	402.95633	1003.37384	315.04938	326.74960	1133.04785	315.99832	305.20773	983.94647	207.70790	305.81348	1003.69702	211.49536	393.80814	1014.96112	91.84125	387.68085	1017.60815	-81.94793	352.71997	1089.40466	-60.82737	303.26563	1071.23547	-82.51363	396.92932	1010.22015	-182.25240	251.77672	1046.70386	-163.12125	193.29117	
800	3.995	1205.47668	316.44791	1284.46143	1325.97925	354.18866	1287.04163	1080.65149	377.38159	1301.63123	1211.11609	453.95782	1241.35901	1490.09192	300.72083	1284.16968	1633.07007	302.19901	1216.88354	1615.28503	245.02997	1269.51697	1609.58704	323.28201	1374.54309	1578.22803	415.25818	1438.59448	1622.00891	402.19128	1454.84351	881.81036	352.37994	1287.39551	764.92767	390.63986	1211.85608	761.79364	327.81537	1257.49707	800.67041	407.52298	1378.55017	793.25232	478.00067	1445.96655	848.44263	468.71939	1436.56042	1329.31616	411.76620	769.99585	1275.79712	246.70920	863.36487	1367.45984	351.38205	864.85333	1089.19751	410.24274	768.22400	1160.14612	249.52802	857.84253	1061.19287	364.94376	852.37006	1387.62109	384.83508	531.80591	1386.46008	387.42120	416.57065	1402.59192	339.84006	387.37827	1399.21594	277.00052	532.84973	1379.60437	280.69186	414.83511	1384.23694	345.28912	309.03287	1256.89941	325.28430	318.46478	1405.38928	217.89433	291.21951	1388.20435	98.81527	282.81000	1403.64709	211.11119	366.69907	1387.69800	95.89252	365.94568	1376.32617	-67.91183	322.69257	1297.28503	-52.60256	286.80466	1318.28394	-93.33675	374.74582	1396.64893	-138.26372	221.39357	1362.88000	-115.77735	167.74792	1018.55640	382.85831	534.34521	1015.46265	381.69516	394.45834	1017.10718	263.66354	538.87433	1020.94666	266.78314	402.89713	1003.50305	314.84848	326.93839	1133.10034	315.90775	305.20258	983.86115	207.64127	305.56671	1003.98395	211.12628	393.40512	1016.36377	90.41668	385.74969	1017.40997	-82.42075	350.44968	1089.29126	-61.09312	301.10684	1071.08496	-83.50465	394.45709	1009.97394	-181.68257	248.42059	1046.35071	-161.95923	190.07954	
801	4.000	1205.54150	311.93112	1284.80713	1325.99500	349.62891	1287.55322	1080.52368	372.54849	1302.34595	1211.14526	449.52637	1242.26379	1490.18079	296.18579	1284.40881	1633.15991	298.14404	1217.27161	1615.33362	240.70920	1269.64001	1609.30188	318.51135	1374.97229	1577.59326	410.10297	1439.30396	1621.47266	397.05136	1455.47900	881.75073	348.01422	1287.78186	764.70544	386.80258	1212.78772	761.54242	323.60086	1257.85144	800.94055	402.75980	1379.08228	793.40271	473.10526	1447.10339	848.65277	463.60703	1437.43665	1329.50195	409.85486	770.87158	1275.86462	244.20491	863.04883	1367.59998	348.70282	865.25745	1089.46375	408.52612	769.01855	1160.22632	247.24652	857.45862	1061.30554	362.73166	852.89417	1388.12952	383.49902	532.00696	1386.56885	386.10980	417.16016	1403.10400	339.84406	387.58484	1399.37109	276.13159	532.59662	1379.69580	280.10474	414.77176	1384.24292	345.03241	309.12076	1256.96948	325.15305	318.44894	1405.66321	217.78783	290.74994	1388.44910	98.72331	281.52069	1403.70715	210.42751	366.13858	1387.69409	95.16559	364.58545	1376.42432	-67.06750	321.08728	1297.48047	-52.58113	285.42944	1318.58032	-91.79659	373.80930	1396.73132	-138.52779	221.62195	1362.56104	-117.15656	167.31441	1018.67731	382.00354	534.45111	1015.58893	381.36490	394.75647	1017.02045	262.57336	539.05804	1021.12329	266.40546	402.79880	1003.34674	314.76770	327.38327	1133.15906	315.82257	305.21844	983.70502	207.50246	305.35999	1004.07312	210.12778	393.24460	1016.57770	89.76574	384.48309	1017.16473	-82.88001	347.96225	1089.28625	-61.25093	298.93701	1070.97192	-84.50336	392.11407	1008.99304	-181.03351	244.91374	1046.12805	-160.63945	186.81050	
